<?xml version="1.0" standalone="no"?><!DOCTYPE svg PUBLIC "-//W3C//DTD SVG 1.1//EN" "http://www.w3.org/Graphics/SVG/1.1/DTD/svg11.dtd"><svg t="1720023403000" class="icon" viewBox="0 0 1024 1024" version="1.1" xmlns="http://www.w3.org/2000/svg" p-id="16542" xmlns:xlink="http://www.w3.org/1999/xlink" width="200" height="200"><path d="M760.4 77.33H263.6c-102.73 0-186.3 83.57-186.3 186.24v496.8c0 102.73 83.57 186.3 186.3 186.3h496.8c102.73 0 186.3-83.57 186.3-186.3v-496.8c0-102.67-83.57-186.24-186.3-186.24z m86.96 683.04c0 47.97-38.99 86.96-86.96 86.96H263.6c-47.97 0-86.96-38.99-86.96-86.96v-496.8c0-47.91 38.99-86.9 86.96-86.9h496.8c47.97 0 86.96 38.99 86.96 86.9v496.8z" fill="#5E6B7A" p-id="16543"></path><path d="M698.3 338.1H325.7c-27.41 0-49.67 22.26-49.67 49.67s22.26 49.67 49.67 49.67h372.6c27.41 0 49.67-22.26 49.67-49.67s-22.26-49.67-49.67-49.67zM698.3 555.45H325.7c-27.41 0-49.67 22.26-49.67 49.67s22.26 49.67 49.67 49.67h372.6c27.41 0 49.67-22.26 49.67-49.67s-22.26-49.67-49.67-49.67z" fill="#5E6B7A" p-id="16544"></path></svg>