<?xml version="1.0" standalone="no"?><!DOCTYPE svg PUBLIC "-//W3C//DTD SVG 1.1//EN" "http://www.w3.org/Graphics/SVG/1.1/DTD/svg11.dtd"><svg t="1720023501907" class="icon" viewBox="0 0 1256 1024" version="1.1" xmlns="http://www.w3.org/2000/svg" p-id="17541" xmlns:xlink="http://www.w3.org/1999/xlink" width="245.3125" height="200"><path d="M27.927273 614.4c-13.963636 0-27.927273-13.963636-27.927273-27.927273v-13.963636c0-13.963636 13.963636-27.927273 27.927273-27.927273s27.927273 13.963636 27.927272 27.927273v13.963636c0 13.963636-13.963636 27.927273-27.927272 27.927273" fill="#999999" p-id="17542"></path><path d="M1196.218182 646.981818l-97.745455-27.927273V372.363636l97.745455-27.927272v302.545454z m41.890909-367.709091c-9.309091-4.654545-13.963636-4.654545-23.272727-4.654545l-116.363637 37.236363V214.109091C1098.472727 97.745455 1000.727273 0 884.363636 0H214.109091C97.745455 0 0 97.745455 0 214.109091v256c0 13.963636 13.963636 27.927273 27.927273 27.927273s27.927273-13.963636 27.927272-27.927273V214.109091c0-88.436364 69.818182-158.254545 158.254546-158.254546H884.363636c88.436364 0 158.254545 69.818182 158.254546 158.254546v558.545454c0 88.436364-69.818182 158.254545-158.254546 158.254546H214.109091c-88.436364 0-158.254545-69.818182-158.254546-158.254546v-88.436363c0-13.963636-13.963636-27.927273-27.927272-27.927273s-27.927273 13.963636-27.927273 27.927273v88.436363c0 116.363636 97.745455 214.109091 214.109091 214.109091H884.363636c116.363636 0 214.109091-97.745455 214.109091-214.109091v-97.745454l116.363637 37.236364h9.309091c4.654545 0 13.963636 0 18.618181-4.654546 9.309091-4.654545 9.309091-13.963636 9.309091-23.272727V302.545455c0-9.309091-4.654545-18.618182-13.963636-23.272728z" fill="#999999" p-id="17543"></path><path d="M702.836364 479.418182L451.490909 335.127273c-13.963636-9.309091-27.927273 0-27.927273 13.963636v288.581818c0 13.963636 13.963636 23.272727 27.927273 13.963637l251.345455-144.290909c9.309091-4.654545 9.309091-23.272727 0-27.927273" fill="#999999" p-id="17544"></path></svg>