<?xml version="1.0" standalone="no"?><!DOCTYPE svg PUBLIC "-//W3C//DTD SVG 1.1//EN" "http://www.w3.org/Graphics/SVG/1.1/DTD/svg11.dtd"><svg t="1720023121292" class="icon" viewBox="0 0 1024 1024" version="1.1" xmlns="http://www.w3.org/2000/svg" p-id="8858" xmlns:xlink="http://www.w3.org/1999/xlink" width="200" height="200"><path d="M41.79584 647.68a41.664 41.664 0 0 0 41.6-41.6V312c0-50.944 42.368-87.872 100.672-87.872h711.424L824.89984 294.4a41.28 41.28 0 0 0 0 58.752 42.56 42.56 0 0 0 58.752 0l117.12-116.16a76.608 76.608 0 0 0 0-108.992L883.39584 12.032a41.6 41.6 0 0 0-58.56 58.944l70.656 70.208H184.70784a192.896 192.896 0 0 0-128.064 45.696A163.968 163.968 0 0 0 0.00384 312.064v293.952a41.536 41.536 0 0 0 41.792 41.664z m941.12-271.36a41.728 41.728 0 0 0-41.664 41.6v270.528c0 59.264-47.104 111.36-100.736 111.36H127.81184L198.40384 729.6a41.472 41.472 0 1 0-58.496-59.008l-117.12 116.16a76.608 76.608 0 0 0 0 108.992l117.12 116.16a41.6 41.6 0 0 0 58.496-59.008l-70.592-70.144h712.704a176.576 176.576 0 0 0 131.584-60.864A202.176 202.176 0 0 0 1024.00384 688.448V417.92a41.664 41.664 0 0 0-41.088-41.6z" fill="#111111" p-id="8859"></path></svg>