<?xml version="1.0" standalone="no"?><!DOCTYPE svg PUBLIC "-//W3C//DTD SVG 1.1//EN" "http://www.w3.org/Graphics/SVG/1.1/DTD/svg11.dtd"><svg t="1720059591881" class="icon" viewBox="0 0 1024 1024" version="1.1" xmlns="http://www.w3.org/2000/svg" p-id="6906" xmlns:xlink="http://www.w3.org/1999/xlink" width="200" height="200"><path d="M128 512l256-256 256 256 256-256v640H128V512z" fill="#C0C5D3" p-id="6907"></path><path d="M896 928H128a32 32 0 0 1-32-32V512a32 32 0 0 1 9.28-22.72l256-256a32 32 0 0 1 45.44 0l233.28 233.6 233.28-233.6a32 32 0 0 1 34.88-6.72A32 32 0 0 1 928 256v640a32 32 0 0 1-32 32zM160 864h704V333.12l-201.28 201.6a32 32 0 0 1-45.44 0L384 301.12l-224 224z" fill="#C0C5D3" p-id="6908"></path></svg>